<svg xmlns="http://www.w3.org/2000/svg" xmlns:xlink="http://www.w3.org/1999/xlink" version="1.1" x="0px" y="0px" viewBox="0 0 100 125" enable-background="new 0 0 100 100" xml:space="preserve">
	<path fill="#000000" d="M43.319,1.109"/>
	<g><path fill="#000000" d="M52.219,98.893"/></g>
	<g><path fill="#000000" stroke="#1B75BB" stroke-width="2.3516" stroke-miterlimit="10" d="M41.103,41.105"/></g>
	<g><path fill="#000000" stroke="#1B75BB" stroke-width="2.3516" stroke-miterlimit="10" d="M45.549,63.327"/></g>
	<g><path fill="#000000" stroke="#FFFFFF" stroke-width="1.9999" stroke-miterlimit="10" d="M49.998,61.106"/></g>
	<path fill="#000000" d="M49.998,76.659"/>
	<g><path d="M49.998,28.886c-11.046,0-20,8.952-20,19.998c0,11.047,8.954,20.003,20,20.003c11.042,0,20-8.956,20-20.003   C69.998,37.837,61.039,28.886,49.998,28.886z M43.983,32.367c-1.222,1.566-2.255,3.615-3.041,5.98h-5.013   C37.966,35.642,40.752,33.543,43.983,32.367z M34.404,40.75h5.854c-0.51,2.136-0.818,4.479-0.898,6.931h-6.903   C32.627,45.196,33.304,42.849,34.404,40.75z M34.404,57.019c-1.1-2.1-1.777-4.446-1.947-6.936h6.903   c0.08,2.457,0.388,4.795,0.898,6.936H34.404z M35.929,59.416h5.013c0.786,2.37,1.819,4.418,3.045,5.989   C40.752,64.225,37.966,62.126,35.929,59.416z M48.794,66.246c-1.996-0.727-3.966-3.17-5.326-6.83h5.326V66.246z M48.794,57.019   H42.72c-0.533-2.062-0.875-4.392-0.958-6.936h7.032V57.019z M48.794,47.681h-7.032c0.083-2.545,0.425-4.869,0.958-6.931h6.074   V47.681z M48.794,38.348h-5.326c1.359-3.661,3.33-6.104,5.326-6.826V38.348z M64.062,38.348h-5.011   c-0.785-2.366-1.819-4.414-3.041-5.98C59.241,33.543,62.027,35.642,64.062,38.348z M51.196,31.522   c1.996,0.721,3.974,3.165,5.326,6.826h-5.326V31.522z M51.196,40.75h6.074c0.533,2.062,0.875,4.386,0.958,6.931h-7.032V40.75z    M51.196,50.083h7.032c-0.083,2.544-0.425,4.873-0.958,6.936h-6.074V50.083z M51.196,66.246v-6.83h5.326   C55.17,63.076,53.192,65.52,51.196,66.246z M56.006,65.405c1.226-1.571,2.26-3.619,3.045-5.989h5.011   C62.031,62.126,59.241,64.225,56.006,65.405z M65.596,57.019h-5.858c0.51-2.141,0.815-4.479,0.897-6.936h6.899   C67.368,52.572,66.691,54.919,65.596,57.019z M67.534,47.681h-6.899c-0.082-2.453-0.388-4.795-0.897-6.931h5.85   C66.691,42.849,67.368,45.196,67.534,47.681z"/><path d="M66.661,20.582H33.332c-9.166,0-16.664,7.5-16.664,16.664V59.99c0,7.216,4.658,13.384,11.106,15.689v9.87l14.229-8.892   h24.658c9.166,0,16.666-7.501,16.666-16.668V37.245C83.327,28.082,75.827,20.582,66.661,20.582z M79.326,59.99   c0,6.985-5.681,12.667-12.665,12.667H42.003h-1.146l-0.974,0.606l-8.109,5.071V75.68v-2.82l-2.655-0.946   c-5.055-1.81-8.451-6.6-8.451-11.923V37.245c0-6.981,5.679-12.663,12.663-12.663h33.329c6.984,0,12.665,5.682,12.665,12.663V59.99z   "/></g>
</svg>